# Blender 4.3.2
# www.blender.org
o Icosphere
v 0.000000 -1.000000 0.000000
v 0.591260 -0.250045 0.305085
v -0.276388 -0.447220 0.850649
v -0.894426 -0.447216 0.000000
v -0.230888 -0.445385 -0.675960
v 0.723810 -0.447211 -0.524946
v 0.276388 0.510053 0.850649
v -0.758349 0.465438 0.549677
v -0.923728 0.551023 -0.387758
v 0.286258 0.467039 -0.655421
v 0.894426 0.447216 0.000000
v -0.200123 1.164716 0.137969
v -0.162721 -0.850259 0.499553
v 0.368360 -0.765790 0.214047
v 0.205906 -0.440873 0.714047
v 0.793684 -0.440870 -0.094966
v 0.425057 -0.850259 -0.309454
v -0.525730 -0.850652 0.000000
v -0.688189 -0.525736 0.499997
v -0.162456 -0.850654 -0.499995
v -0.688189 -0.525736 -0.499996
v 0.297248 -0.524351 -0.677019
v 0.894096 0.084863 0.214050
v 0.950793 0.000395 -0.309455
v -0.000265 0.000396 0.999558
v 0.530824 0.089306 0.714055
v -0.951891 0.000432 0.309587
v -0.587786 0.000000 0.809017
v -0.585939 0.015695 -0.675381
v -0.979001 0.014494 -0.289748
v 0.622155 0.001386 -0.677060
v 0.104801 0.004692 -0.593861
v 0.687924 0.568183 0.499555
v -0.263703 0.578930 0.809587
v -1.019852 0.613503 0.116654
v -0.422083 0.613908 -0.654003
v 0.687356 0.526169 -0.499422
v 0.134508 1.013901 0.519263
v 0.497784 0.913675 0.019266
v -0.594530 0.963590 0.425667
v -0.775028 1.032048 -0.067916
v -0.006750 0.941359 -0.383341
vn 0.0703 -0.9961 0.0533
vn 0.7183 -0.4499 0.5307
vn -0.1835 -0.4724 0.8621
vn -0.8884 -0.4591 0.0063
vn -0.1051 -0.1843 -0.9772
vn 0.6934 -0.4375 -0.5726
vn 0.3299 0.3451 0.8787
vn -0.6944 0.2335 0.6807
vn -0.7688 0.2833 -0.5733
vn 0.1108 0.2724 -0.9558
vn 0.9185 0.3951 0.0154
vn 0.0094 0.9998 0.0159
vn -0.0412 -0.8429 0.5365
vn 0.5810 -0.7033 0.4095
vn 0.4918 -0.5057 0.7088
vn 0.8418 -0.5057 0.1889
vn 0.4749 -0.8397 -0.2632
vn -0.5256 -0.8507 0.0002
vn -0.6877 -0.5262 0.5001
vn -0.1496 -0.7757 -0.6131
vn -0.6216 -0.4788 -0.6200
vn 0.1534 -0.3329 -0.9304
vn 0.9093 -0.1539 0.3866
vn 0.9593 -0.0416 -0.2792
vn 0.1006 -0.0790 0.9918
vn 0.6742 -0.1779 0.7168
vn -0.9289 -0.1182 0.3509
vn -0.5781 -0.0280 0.8155
vn -0.3399 -0.0269 -0.9401
vn -0.9240 -0.1252 -0.3613
vn 0.3768 0.0293 -0.9258
vn -0.0286 0.0247 -0.9993
vn 0.7547 0.4139 0.5091
vn -0.2399 0.4100 0.8800
vn -0.9430 0.2757 0.1866
vn -0.1804 0.3860 -0.9047
vn 0.6068 0.4983 -0.6192
vn 0.2387 0.8189 0.5220
vn 0.5584 0.8251 -0.0854
vn -0.4522 0.6920 0.5627
vn -0.5569 0.8088 -0.1889
vn 0.1306 0.7985 -0.5876
vt 0.181819 0.000000
vt 0.227273 0.078731
vt 0.136365 0.078731
vt 0.272728 0.157461
vt 0.318182 0.078731
vt 0.363637 0.157461
vt 0.909091 0.000000
vt 0.954545 0.078731
vt 0.863636 0.078731
vt 0.727273 0.000000
vt 0.772727 0.078731
vt 0.681818 0.078731
vt 0.545455 0.000000
vt 0.590909 0.078731
vt 0.500000 0.078731
vt 0.318182 0.236191
vt 0.090910 0.157461
vt 0.181819 0.157461
vt 0.136365 0.236191
vt 0.818182 0.157461
vt 0.909091 0.157461
vt 0.863636 0.236191
vt 0.636364 0.157461
vt 0.727273 0.157461
vt 0.681818 0.236191
vt 0.454546 0.157461
vt 0.545455 0.157461
vt 0.500000 0.236191
vt 0.227273 0.236191
vt 0.045455 0.236191
vt 0.772727 0.236191
vt 0.590909 0.236191
vt 0.409092 0.236191
vt 0.181819 0.314921
vt 0.272728 0.314921
vt 0.227273 0.393651
vt 0.000000 0.314921
vt 0.090910 0.314921
vt 0.045455 0.393651
vt 0.727273 0.314921
vt 0.818182 0.314921
vt 0.772727 0.393651
vt 0.545455 0.314921
vt 0.636364 0.314921
vt 0.590909 0.393651
vt 0.363637 0.314921
vt 0.454546 0.314921
vt 0.409092 0.393651
vt 0.500000 0.393651
vt 0.454546 0.472382
vt 0.681818 0.393651
vt 0.636364 0.472382
vt 0.863636 0.393651
vt 0.818182 0.472382
vt 0.909091 0.314921
vt 0.136365 0.393651
vt 0.090910 0.472382
vt 0.318182 0.393651
vt 0.272728 0.472382
vt 0.954545 0.236191
vt 1.000000 0.157461
vt 0.409092 0.078731
vt 0.363637 0.000000
s 1
f 1/1/1 14/2/14 13/3/13
f 2/4/2 14/5/14 16/6/16
f 1/7/1 13/8/13 18/9/18
f 1/10/1 18/11/18 20/12/20
f 1/13/1 20/14/20 17/15/17
f 2/4/2 16/6/16 23/16/23
f 3/17/3 15/18/15 25/19/25
f 4/20/4 19/21/19 27/22/27
f 5/23/5 21/24/21 29/25/29
f 6/26/6 22/27/22 31/28/31
f 2/4/2 23/16/23 26/29/26
f 3/17/3 25/19/25 28/30/28
f 4/20/4 27/22/27 30/31/30
f 5/23/5 29/25/29 32/32/32
f 6/26/6 31/28/31 24/33/24
f 7/34/7 33/35/33 38/36/38
f 8/37/8 34/38/34 40/39/40
f 9/40/9 35/41/35 41/42/41
f 10/43/10 36/44/36 42/45/42
f 11/46/11 37/47/37 39/48/39
f 39/48/39 42/49/42 12/50/12
f 39/48/39 37/47/37 42/49/42
f 37/47/37 10/43/10 42/49/42
f 42/45/42 41/51/41 12/52/12
f 42/45/42 36/44/36 41/51/41
f 36/44/36 9/40/9 41/51/41
f 41/42/41 40/53/40 12/54/12
f 41/42/41 35/41/35 40/53/40
f 35/41/35 8/55/8 40/53/40
f 40/39/40 38/56/38 12/57/12
f 40/39/40 34/38/34 38/56/38
f 34/38/34 7/34/7 38/56/38
f 38/36/38 39/58/39 12/59/12
f 38/36/38 33/35/33 39/58/39
f 33/35/33 11/46/11 39/58/39
f 24/33/24 37/47/37 11/46/11
f 24/33/24 31/28/31 37/47/37
f 31/28/31 10/43/10 37/47/37
f 32/32/32 36/44/36 10/43/10
f 32/32/32 29/25/29 36/44/36
f 29/25/29 9/40/9 36/44/36
f 30/31/30 35/41/35 9/40/9
f 30/31/30 27/22/27 35/41/35
f 27/22/27 8/55/8 35/41/35
f 28/30/28 34/38/34 8/37/8
f 28/30/28 25/19/25 34/38/34
f 25/19/25 7/34/7 34/38/34
f 26/29/26 33/35/33 7/34/7
f 26/29/26 23/16/23 33/35/33
f 23/16/23 11/46/11 33/35/33
f 31/28/31 32/32/32 10/43/10
f 31/28/31 22/27/22 32/32/32
f 22/27/22 5/23/5 32/32/32
f 29/25/29 30/31/30 9/40/9
f 29/25/29 21/24/21 30/31/30
f 21/24/21 4/20/4 30/31/30
f 27/22/27 28/60/28 8/55/8
f 27/22/27 19/21/19 28/60/28
f 19/21/19 3/61/3 28/60/28
f 25/19/25 26/29/26 7/34/7
f 25/19/25 15/18/15 26/29/26
f 15/18/15 2/4/2 26/29/26
f 23/16/23 24/33/24 11/46/11
f 23/16/23 16/6/16 24/33/24
f 16/6/16 6/26/6 24/33/24
f 17/15/17 22/27/22 6/26/6
f 17/15/17 20/14/20 22/27/22
f 20/14/20 5/23/5 22/27/22
f 20/12/20 21/24/21 5/23/5
f 20/12/20 18/11/18 21/24/21
f 18/11/18 4/20/4 21/24/21
f 18/9/18 19/21/19 4/20/4
f 18/9/18 13/8/13 19/21/19
f 13/8/13 3/61/3 19/21/19
f 16/6/16 17/62/17 6/26/6
f 16/6/16 14/5/14 17/62/17
f 14/5/14 1/63/1 17/62/17
f 13/3/13 15/18/15 3/17/3
f 13/3/13 14/2/14 15/18/15
f 14/2/14 2/4/2 15/18/15
